<svg xmlns="http://www.w3.org/2000/svg" width="680" height="200" viewBox="0 0 680 200" font-family="Helvetica,Arial,sans-serif" role="img">
<rect width="680" height="200" rx="14" fill="#EFF6FF"/>
<rect x="0" y="0" width="6" height="200" rx="3" fill="#3B82F6"/>
<text x="340.0" y="40" font-size="18" font-weight="800" fill="#0F1E3D" text-anchor="middle">How Business Studies Resources scales into your ATAR</text>
<rect x="16" y="70" width="118" height="96" rx="12" fill="#FFFFFF" stroke="#3B82F6" stroke-width="2"/><text x="75" y="118" font-size="14" font-weight="700" fill="#1E3A8A" text-anchor="middle"><tspan x="75" dy="0">Raw HSC mark</tspan></text><path d="M136 118.0 l10 0 m-4 -4 l4 4 l-4 4" stroke="#3B82F6" stroke-width="2.5" fill="none" stroke-linecap="round" stroke-linejoin="round"/><rect x="148" y="70" width="118" height="96" rx="12" fill="#FFFFFF" stroke="#3B82F6" stroke-width="2"/><text x="208" y="109" font-size="14" font-weight="700" fill="#1E3A8A" text-anchor="middle"><tspan x="208" dy="0">UAC scales vs</tspan><tspan x="208" dy="18">cohort</tspan></text><path d="M269 118.0 l10 0 m-4 -4 l4 4 l-4 4" stroke="#3B82F6" stroke-width="2.5" fill="none" stroke-linecap="round" stroke-linejoin="round"/><rect x="281" y="70" width="118" height="96" rx="12" fill="#FFFFFF" stroke="#3B82F6" stroke-width="2"/><text x="340" y="118" font-size="14" font-weight="700" fill="#1E3A8A" text-anchor="middle"><tspan x="340" dy="0">Scaled mark</tspan></text><path d="M401 118.0 l10 0 m-4 -4 l4 4 l-4 4" stroke="#3B82F6" stroke-width="2.5" fill="none" stroke-linecap="round" stroke-linejoin="round"/><rect x="413" y="70" width="118" height="96" rx="12" fill="#FFFFFF" stroke="#3B82F6" stroke-width="2"/><text x="472" y="118" font-size="14" font-weight="700" fill="#1E3A8A" text-anchor="middle"><tspan x="472" dy="0">Best 10 units</tspan></text><path d="M534 118.0 l10 0 m-4 -4 l4 4 l-4 4" stroke="#3B82F6" stroke-width="2.5" fill="none" stroke-linecap="round" stroke-linejoin="round"/><rect x="546" y="70" width="118" height="96" rx="12" fill="#3B82F6" stroke="#3B82F6" stroke-width="2"/><text x="605" y="118" font-size="14" font-weight="700" fill="#FFFFFF" text-anchor="middle"><tspan x="605" dy="0">ATAR 0–99.95</tspan></text>
<text x="340.0" y="188" font-size="11" fill="#64748B" text-anchor="middle">atarcalculators.com</text>
</svg>