<svg xmlns="http://www.w3.org/2000/svg" width="680" height="200" viewBox="0 0 680 200" font-family="Helvetica,Arial,sans-serif" role="img">
<rect width="680" height="200" rx="14" fill="#EFF6FF"/>
<rect x="0" y="0" width="6" height="200" rx="3" fill="#0EA5E9"/>
<text x="340.0" y="40" font-size="18" font-weight="800" fill="#0F1E3D" text-anchor="middle">How the ATAR is calculated</text>
<rect x="16" y="70" width="152" height="96" rx="12" fill="#FFFFFF" stroke="#0EA5E9" stroke-width="2"/><text x="92" y="109" font-size="14" font-weight="700" fill="#1E3A8A" text-anchor="middle"><tspan x="92" dy="0">Your subject</tspan><tspan x="92" dy="18">results</tspan></text><path d="M170 118.0 l10 0 m-4 -4 l4 4 l-4 4" stroke="#0EA5E9" stroke-width="2.5" fill="none" stroke-linecap="round" stroke-linejoin="round"/><rect x="182" y="70" width="152" height="96" rx="12" fill="#FFFFFF" stroke="#0EA5E9" stroke-width="2"/><text x="257" y="109" font-size="14" font-weight="700" fill="#1E3A8A" text-anchor="middle"><tspan x="257" dy="0">Scaled vs the</tspan><tspan x="257" dy="18">cohort</tspan></text><path d="M335 118.0 l10 0 m-4 -4 l4 4 l-4 4" stroke="#0EA5E9" stroke-width="2.5" fill="none" stroke-linecap="round" stroke-linejoin="round"/><rect x="347" y="70" width="152" height="96" rx="12" fill="#FFFFFF" stroke="#0EA5E9" stroke-width="2"/><text x="423" y="109" font-size="14" font-weight="700" fill="#1E3A8A" text-anchor="middle"><tspan x="423" dy="0">Best subjects</tspan><tspan x="423" dy="18">combined</tspan></text><path d="M500 118.0 l10 0 m-4 -4 l4 4 l-4 4" stroke="#0EA5E9" stroke-width="2.5" fill="none" stroke-linecap="round" stroke-linejoin="round"/><rect x="512" y="70" width="152" height="96" rx="12" fill="#0EA5E9" stroke="#0EA5E9" stroke-width="2"/><text x="588" y="109" font-size="14" font-weight="700" fill="#FFFFFF" text-anchor="middle"><tspan x="588" dy="0">ATAR rank</tspan><tspan x="588" dy="18">0–99.95</tspan></text>
<text x="340.0" y="188" font-size="11" fill="#64748B" text-anchor="middle">atarcalculators.com</text>
</svg>